<svg width="204" height="231" viewBox="0 0 204 231" fill="none" xmlns="http://www.w3.org/2000/svg">
<circle cx="102" cy="102" r="102" fill="#F0F8F1"/>
<path fill-rule="evenodd" clip-rule="evenodd" d="M40 118C40 113.029 44.0294 109 49 109H155C159.971 109 164 113.029 164 118V194C164 198.971 159.971 203 155 203H124V214H132C136.652 214 139.752 215.983 141.623 218.581C143.42 221.078 144 224.013 144 226V228H60V226C60 221.348 61.9831 218.248 64.5814 216.377C67.0777 214.58 70.0133 214 72 214H80V203H49C44.0294 203 40 198.971 40 194V118ZM84 203H120V214H84V203ZM49 113C46.2386 113 44 115.239 44 118V194C44 196.761 46.2386 199 49 199H155C157.761 199 160 196.761 160 194V118C160 115.239 157.761 113 155 113H49ZM48 119C48 117.895 48.8954 117 50 117H154C155.105 117 156 117.895 156 119V193C156 194.105 155.105 195 154 195H50C48.8954 195 48 194.105 48 193V119ZM52 121V191H152V121H52ZM139.749 224H64.1827C64.6024 221.856 65.694 220.505 66.9186 219.623C68.5889 218.42 70.6534 218 72 218H132C135.348 218 137.248 219.35 138.377 220.919C139.073 221.886 139.507 222.985 139.749 224ZM68.5 179C72.0899 179 75 176.09 75 172.5C75 168.91 72.0899 166 68.5 166C64.9101 166 62 168.91 62 172.5C62 176.09 64.9101 179 68.5 179ZM68.5 183C74.299 183 79 178.299 79 172.5C79 166.701 74.299 162 68.5 162C62.701 162 58 166.701 58 172.5C58 178.299 62.701 183 68.5 183ZM138.5 179C142.09 179 145 176.09 145 172.5C145 168.91 142.09 166 138.5 166C134.91 166 132 168.91 132 172.5C132 176.09 134.91 179 138.5 179ZM138.5 183C144.299 183 149 178.299 149 172.5C149 166.701 144.299 162 138.5 162C132.701 162 128 166.701 128 172.5C128 178.299 132.701 183 138.5 183Z" fill="black"/>
<path d="M129 152.732L90 175.249C88.6667 176.019 87 175.056 87 173.517L87 128.483C87 126.944 88.6667 125.981 90 126.751L129 149.268C130.333 150.038 130.333 151.962 129 152.732Z" stroke="black" stroke-width="4" stroke-linecap="round" stroke-linejoin="round"/>
</svg>
