<svg width="204" height="226" viewBox="0 0 204 226" fill="none" xmlns="http://www.w3.org/2000/svg">
<circle cx="102" cy="102" r="102" fill="#FCFAE9"/>
<rect x="32" y="96" width="140" height="80" rx="40" stroke="black" stroke-width="4" stroke-linecap="round" stroke-linejoin="round"/>
<rect x="72" y="106" width="60" height="60" stroke="black" stroke-width="4" stroke-linecap="round" stroke-linejoin="round"/>
<path d="M47 131V133C48.1046 133 49 132.105 49 131H47ZM47 141H49C49 139.895 48.1046 139 47 139V141ZM57 141V139C55.8954 139 55 139.895 55 141H57ZM57 131H55C55 132.105 55.8954 133 57 133V131ZM49 127C49 126.448 49.4477 126 50 126V122C47.2386 122 45 124.239 45 127H49ZM49 131V127H45V131H49ZM43 133H47V129H43V133ZM42 134C42 133.448 42.4477 133 43 133V129C40.2386 129 38 131.239 38 134H42ZM42 138V134H38V138H42ZM43 139C42.4477 139 42 138.552 42 138H38C38 140.761 40.2386 143 43 143V139ZM47 139H43V143H47V139ZM49 145V141H45V145H49ZM50 146C49.4477 146 49 145.552 49 145H45C45 147.761 47.2386 150 50 150V146ZM54 146H50V150H54V146ZM55 145C55 145.552 54.5523 146 54 146V150C56.7614 150 59 147.761 59 145H55ZM55 141V145H59V141H55ZM61 139H57V143H61V139ZM62 138C62 138.552 61.5523 139 61 139V143C63.7614 143 66 140.761 66 138H62ZM62 134V138H66V134H62ZM61 133C61.5523 133 62 133.448 62 134H66C66 131.239 63.7614 129 61 129V133ZM57 133H61V129H57V133ZM55 127V131H59V127H55ZM54 126C54.5523 126 55 126.448 55 127H59C59 124.239 56.7614 122 54 122V126ZM50 126H54V122H50V126Z" fill="black"/>
<circle cx="152" cy="128" r="4" stroke="black" stroke-width="4"/>
<circle cx="144" cy="136" r="4" stroke="black" stroke-width="4"/>
<circle cx="152" cy="144" r="4" stroke="black" stroke-width="4"/>
<circle cx="160" cy="136" r="4" stroke="black" stroke-width="4"/>
<path d="M102 186C102 209.841 114 223.625 142 215.802" stroke="black" stroke-width="4" stroke-linecap="round" stroke-linejoin="round"/>
<path d="M92 186H112" stroke="black" stroke-width="4" stroke-linecap="round" stroke-linejoin="round"/>
</svg>
