<svg width="204" height="231" viewBox="0 0 204 231" fill="none" xmlns="http://www.w3.org/2000/svg">
<circle cx="102" cy="102" r="102" fill="#F0F8F1"/>
<path fill-rule="evenodd" clip-rule="evenodd" d="M100.891 104.336C101.562 103.888 102.438 103.888 103.109 104.336L110.106 109H155C159.971 109 164 113.029 164 118V194C164 198.971 159.971 203 155 203H124V214H132C136.652 214 139.752 215.983 141.623 218.581C143.42 221.078 144 224.013 144 226V228H60V226C60 221.348 61.9831 218.248 64.5814 216.377C67.0777 214.58 70.0133 214 72 214H80V203H49C44.0294 203 40 198.971 40 194V118C40 113.029 44.0294 109 49 109H93.8945L100.891 104.336ZM87.8945 113H49C46.2386 113 44 115.239 44 118V194C44 196.761 46.2386 199 49 199H155C157.761 199 160 196.761 160 194V118C160 115.239 157.761 113 155 113H116.106L122.106 117H154C155.105 117 156 117.895 156 119V193C156 194.105 155.105 195 154 195H50C48.8954 195 48 194.105 48 193V119C48 117.895 48.8954 117 50 117H81.8945L87.8945 113ZM75.8945 121H52V191H152V121H128.106L133.109 124.336C133.666 124.707 134 125.331 134 126V156C134 156.669 133.666 157.293 133.109 157.664L103.109 177.664C102.438 178.112 101.562 178.112 100.891 177.664L70.8906 157.664C70.3342 157.293 70 156.669 70 156V126C70 125.331 70.3342 124.707 70.8906 124.336L75.8945 121ZM74 129.737V154.93L100 172.263V147.07L74 129.737ZM104 147.07V172.263L130 154.93V129.737L104 147.07ZM128.394 126L102 143.596L75.6056 126L102 108.404L128.394 126ZM75 172.5C75 176.09 72.0899 179 68.5 179C64.9101 179 62 176.09 62 172.5C62 168.91 64.9101 166 68.5 166C72.0899 166 75 168.91 75 172.5ZM79 172.5C79 178.299 74.299 183 68.5 183C62.701 183 58 178.299 58 172.5C58 166.701 62.701 162 68.5 162C74.299 162 79 166.701 79 172.5ZM145 172.5C145 176.09 142.09 179 138.5 179C134.91 179 132 176.09 132 172.5C132 168.91 134.91 166 138.5 166C142.09 166 145 168.91 145 172.5ZM149 172.5C149 178.299 144.299 183 138.5 183C132.701 183 128 178.299 128 172.5C128 166.701 132.701 162 138.5 162C144.299 162 149 166.701 149 172.5ZM84 203V214H120V203H84ZM64.1827 224H139.749C139.507 222.985 139.073 221.886 138.377 220.919C137.248 219.35 135.348 218 132 218H72C70.6534 218 68.5889 218.42 66.9186 219.623C65.694 220.505 64.6024 221.856 64.1827 224Z" fill="black"/>
</svg>
