<svg width="362" height="360" viewBox="0 0 362 360" fill="none" xmlns="http://www.w3.org/2000/svg">
<rect width="362" height="360" fill="white"/>
<circle cx="181" cy="115" r="102" fill="#F0F8F1"/>
<path fill-rule="evenodd" clip-rule="evenodd" d="M179.891 117.336C180.562 116.888 181.438 116.888 182.109 117.336L189.106 122H234C238.971 122 243 126.029 243 131V207C243 211.971 238.971 216 234 216H203V227H211C215.652 227 218.752 228.983 220.623 231.581C222.42 234.078 223 237.013 223 239V241H139V239C139 234.348 140.983 231.248 143.581 229.377C146.078 227.58 149.013 227 151 227H159V216H128C123.029 216 119 211.971 119 207V131C119 126.029 123.029 122 128 122H172.894L179.891 117.336ZM166.894 126H128C125.239 126 123 128.239 123 131V207C123 209.761 125.239 212 128 212H234C236.761 212 239 209.761 239 207V131C239 128.239 236.761 126 234 126H195.106L201.106 130H233C234.105 130 235 130.895 235 132V206C235 207.105 234.105 208 233 208H129C127.895 208 127 207.105 127 206V132C127 130.895 127.895 130 129 130H160.894L166.894 126ZM154.894 134H131V204H231V134H207.106L212.109 137.336C212.666 137.707 213 138.331 213 139V169C213 169.669 212.666 170.293 212.109 170.664L182.109 190.664C181.438 191.112 180.562 191.112 179.891 190.664L149.891 170.664C149.334 170.293 149 169.669 149 169V139C149 138.331 149.334 137.707 149.891 137.336L154.894 134ZM153 142.737V167.93L179 185.263V160.07L153 142.737ZM183 160.07V185.263L209 167.93V142.737L183 160.07ZM207.394 139L181 156.596L154.606 139L181 121.404L207.394 139ZM154 185.5C154 189.09 151.09 192 147.5 192C143.91 192 141 189.09 141 185.5C141 181.91 143.91 179 147.5 179C151.09 179 154 181.91 154 185.5ZM158 185.5C158 191.299 153.299 196 147.5 196C141.701 196 137 191.299 137 185.5C137 179.701 141.701 175 147.5 175C153.299 175 158 179.701 158 185.5ZM224 185.5C224 189.09 221.09 192 217.5 192C213.91 192 211 189.09 211 185.5C211 181.91 213.91 179 217.5 179C221.09 179 224 181.91 224 185.5ZM228 185.5C228 191.299 223.299 196 217.5 196C211.701 196 207 191.299 207 185.5C207 179.701 211.701 175 217.5 175C223.299 175 228 179.701 228 185.5ZM163 216V227H199V216H163ZM143.183 237H218.749C218.507 235.985 218.073 234.886 217.377 233.919C216.248 232.35 214.348 231 211 231H151C149.653 231 147.589 231.42 145.919 232.623C144.694 233.505 143.602 234.856 143.183 237Z" fill="black"/>
</svg>
