<svg width="362" height="360" viewBox="0 0 362 360" fill="none" xmlns="http://www.w3.org/2000/svg">
<rect width="362" height="360" fill="white"/>
<circle cx="181" cy="115" r="102" fill="#FCFAE9"/>
<path fill-rule="evenodd" clip-rule="evenodd" d="M136.044 152C136.015 152.663 136 153.33 136 154V156H131C129.343 156 128 157.343 128 159V174C128 175.657 129.343 177 131 177H136V181H131C127.134 181 124 177.866 124 174V159C124 155.134 127.134 152 131 152L136.044 152ZM225.956 152C225.985 152.663 226 153.33 226 154V156H231C232.657 156 234 157.343 234 159V174C234 175.657 232.657 177 231 177H226V181H231C234.866 181 238 177.866 238 174V159C238 155.134 234.866 152 231 152H225.956Z" fill="black"/>
<path fill-rule="evenodd" clip-rule="evenodd" d="M164 214.601V229C164 230.105 164.895 231 166 231C167.105 231 168 230.105 168 229V216H169.229C167.412 215.617 165.664 215.148 164 214.601ZM192.771 216H194V229C194 230.105 194.895 231 196 231C197.105 231 198 230.105 198 229V214.601C196.336 215.148 194.588 215.617 192.771 216Z" fill="black"/>
<path fill-rule="evenodd" clip-rule="evenodd" d="M169.442 108.432C149.694 113.425 134.924 130.918 134.042 152H138.046C138.885 133.661 151.213 118.318 168 113V112C168 110.603 168.552 109.339 169.442 108.432ZM194 113C210.787 118.318 223.115 133.661 223.954 152H227.958C227.076 130.918 212.306 113.425 192.558 108.432C193.448 109.339 194 110.603 194 112V113Z" fill="black"/>
<path fill-rule="evenodd" clip-rule="evenodd" d="M168 119.348C157.036 123.464 148.543 132.634 145.362 144.02C145.573 144.007 145.786 144 146 144H149.542C152.452 134.84 159.251 127.413 168 123.659V119.348ZM194 123.659C202.749 127.413 209.548 134.84 212.458 144H216C216.214 144 216.427 144.007 216.638 144.02C213.456 132.634 204.964 123.464 194 119.348V123.659ZM216 189C216.574 189 217.136 188.952 217.684 188.859C215.305 206.997 199.788 221 181 221C162.212 221 146.695 206.997 144.316 188.859C144.864 188.952 145.426 189 146 189H148.376C150.786 204.853 164.474 217 181 217C197.526 217 211.214 204.853 213.624 189H216Z" fill="black"/>
<path fill-rule="evenodd" clip-rule="evenodd" d="M173 105C169.134 105 166 108.134 166 112V144H170V112C170 110.343 171.343 109 173 109H189C190.657 109 192 110.343 192 112V144H196V112C196 108.134 192.866 105 189 105H173Z" fill="black"/>
<path fill-rule="evenodd" clip-rule="evenodd" d="M134 154C134 147.373 139.373 142 146 142H216C222.627 142 228 147.373 228 154V179C228 185.627 222.627 191 216 191H195.741C192.11 191 188.72 189.186 186.706 186.165C183.992 182.093 178.008 182.093 175.294 186.165C173.28 189.186 169.89 191 166.259 191H146C139.373 191 134 185.627 134 179V154ZM146 146C141.582 146 138 149.582 138 154V179C138 183.418 141.582 187 146 187H166.259C168.552 187 170.694 185.854 171.966 183.946C176.263 177.499 185.737 177.499 190.034 183.946C191.306 185.854 193.448 187 195.741 187H216C220.418 187 224 183.418 224 179V154C224 149.582 220.418 146 216 146H146Z" fill="black"/>
<path fill-rule="evenodd" clip-rule="evenodd" d="M164 156C164 154.895 164.895 154 166 154H196C197.105 154 198 154.895 198 156C198 157.105 197.105 158 196 158H166C164.895 158 164 157.105 164 156Z" fill="black"/>
</svg>
