<svg width="550" height="440" viewBox="0 0 550 440" fill="none" xmlns="http://www.w3.org/2000/svg">
<path fill-rule="evenodd" clip-rule="evenodd" d="M540 5H10C7.23857 5 5 7.23857 5 9.99999V435H545V10C545 7.23857 542.761 5 540 5ZM10 0C4.47715 0 0 4.47714 0 9.99999V440H550V10C550 4.47715 545.523 0 540 0H10Z" fill="black"/>
<path fill-rule="evenodd" clip-rule="evenodd" d="M25 26C27.7614 26 30 23.7614 30 21C30 18.2386 27.7614 16 25 16C22.2386 16 20 18.2386 20 21C20 23.7614 22.2386 26 25 26Z" fill="black"/>
<path fill-rule="evenodd" clip-rule="evenodd" d="M42 26C44.7614 26 47 23.7614 47 21C47 18.2386 44.7614 16 42 16C39.2386 16 37 18.2386 37 21C37 23.7614 39.2386 26 42 26Z" fill="black"/>
<path fill-rule="evenodd" clip-rule="evenodd" d="M59 26C61.7614 26 64 23.7614 64 21C64 18.2386 61.7614 16 59 16C56.2386 16 54 18.2386 54 21C54 23.7614 56.2386 26 59 26Z" fill="black"/>
<path fill-rule="evenodd" clip-rule="evenodd" d="M547 40H0V35H547V40Z" fill="black"/>
</svg>
