<svg width="204" height="226" viewBox="0 0 204 226" fill="none" xmlns="http://www.w3.org/2000/svg">
<circle cx="102" cy="102" r="102" fill="#FCFAE9"/>
<path fill-rule="evenodd" clip-rule="evenodd" d="M57.0436 139C57.0147 139.663 57 140.33 57 141V143H52C50.3431 143 49 144.343 49 146V161C49 162.657 50.3431 164 52 164H57V168H52C48.134 168 45 164.866 45 161V146C45 142.134 48.134 139 52 139L57.0436 139ZM146.956 139C146.985 139.663 147 140.33 147 141V143H152C153.657 143 155 144.343 155 146V161C155 162.657 153.657 164 152 164H147V168H152C155.866 168 159 164.866 159 161V146C159 142.134 155.866 139 152 139H146.956Z" fill="black"/>
<path fill-rule="evenodd" clip-rule="evenodd" d="M85 201.601V216C85 217.105 85.8954 218 87 218C88.1046 218 89 217.105 89 216V203H90.229C88.412 202.617 86.6643 202.148 85 201.601ZM113.771 203H115V216C115 217.105 115.895 218 117 218C118.105 218 119 217.105 119 216V201.601C117.336 202.148 115.588 202.617 113.771 203Z" fill="black"/>
<path fill-rule="evenodd" clip-rule="evenodd" d="M90.4421 95.4317C70.6945 100.425 55.9244 117.918 55.0418 139H59.0457C59.8853 120.661 72.2129 105.318 89 100V99C89 97.6025 89.5521 96.339 90.4421 95.4317ZM115 100C131.787 105.318 144.115 120.661 144.954 139H148.958C148.076 117.918 133.306 100.425 113.558 95.4317C114.448 96.339 115 97.6025 115 99V100Z" fill="black"/>
<path fill-rule="evenodd" clip-rule="evenodd" d="M89 106.348C78.0357 110.464 69.5435 119.634 66.3616 131.02C66.5727 131.007 66.7855 131 67 131H70.5423C73.4516 121.84 80.251 114.413 89 110.659V106.348ZM115 110.659C123.749 114.413 130.548 121.84 133.458 131H137C137.214 131 137.427 131.007 137.638 131.02C134.456 119.634 125.964 110.464 115 106.348V110.659ZM137 176C137.574 176 138.136 175.952 138.684 175.859C136.305 193.997 120.788 208 102 208C83.2124 208 67.6954 193.997 65.3162 175.859C65.8636 175.952 66.4261 176 67 176H69.3763C71.7858 191.853 85.4743 204 102 204C118.526 204 132.214 191.853 134.624 176H137Z" fill="black"/>
<path fill-rule="evenodd" clip-rule="evenodd" d="M94 92C90.134 92 87 95.134 87 99V131H91V99C91 97.3431 92.3431 96 94 96H110C111.657 96 113 97.3431 113 99V131H117V99C117 95.134 113.866 92 110 92H94Z" fill="black"/>
<path fill-rule="evenodd" clip-rule="evenodd" d="M55 141C55 134.373 60.3726 129 67 129H137C143.627 129 149 134.373 149 141V166C149 172.627 143.627 178 137 178H116.741C113.11 178 109.72 176.186 107.706 173.165C104.992 169.093 99.0083 169.093 96.2938 173.165C94.28 176.186 90.8897 178 87.2593 178H67C60.3726 178 55 172.627 55 166V141ZM67 133C62.5817 133 59 136.582 59 141V166C59 170.418 62.5817 174 67 174H87.2593C89.5523 174 91.6936 172.854 92.9656 170.946C97.2634 164.499 106.737 164.499 111.034 170.946C112.306 172.854 114.448 174 116.741 174H137C141.418 174 145 170.418 145 166V141C145 136.582 141.418 133 137 133H67Z" fill="black"/>
<path fill-rule="evenodd" clip-rule="evenodd" d="M85 143C85 141.895 85.8954 141 87 141H117C118.105 141 119 141.895 119 143C119 144.105 118.105 145 117 145H87C85.8954 145 85 144.105 85 143Z" fill="black"/>
</svg>
